<?xml version="1.0" encoding="iso-8859-1"?>
<!-- Generator: Adobe Illustrator 19.0.0, SVG Export Plug-In . SVG Version: 6.00 Build 0)  -->
<svg version="1.1" id="Layer_1" xmlns="http://www.w3.org/2000/svg" xmlns:xlink="http://www.w3.org/1999/xlink" x="0px" y="0px"
	 viewBox="0 0 512 512" style="enable-background:new 0 0 512 512;" xml:space="preserve">
<g>
	<path style="fill:#88888F;" d="M331.294,340.429c-41.518-41.517-109.07-41.517-150.588,0l-30.117-30.117
		c58.124-58.124,152.7-58.124,210.823,0L331.294,340.429z"/>
	<path style="fill:#88888F;" d="M406.588,265.135c-40.223-40.223-93.704-62.376-150.588-62.376s-110.365,22.153-150.588,62.376
		l-30.117-30.117c48.268-48.269,112.444-74.851,180.706-74.851s132.438,26.582,180.706,74.851L406.588,265.135z"/>
	<path style="fill:#88888F;" d="M481.883,189.841C421.547,129.505,341.326,96.277,256,96.277S90.453,129.505,30.117,189.841
		L0,159.723C68.38,91.343,159.296,53.684,256,53.684s187.62,37.659,256,106.039L481.883,189.841z"/>
	<circle style="fill:#88888F;" cx="255.997" cy="415.72" r="42.593"/>
</g>
<g>
	<path style="fill:#56545A;" d="M256,309.291c27.268,0,54.536,10.38,75.294,31.138l30.117-30.117
		C332.349,281.25,294.175,266.719,256,266.719V309.291z"/>
	<path style="fill:#56545A;" d="M256,373.13v85.186c23.523,0,42.593-19.069,42.593-42.593S279.523,373.13,256,373.13z"/>
	<path style="fill:#56545A;" d="M256,53.684v42.593c85.328,0,165.547,33.228,225.883,93.564L512,159.723
		C443.62,91.343,352.704,53.684,256,53.684z"/>
	<path style="fill:#56545A;" d="M256,202.759c56.884,0,110.365,22.153,150.588,62.376l30.117-30.117
		C388.438,186.748,324.262,160.166,256,160.166L256,202.759L256,202.759z"/>
</g>
<g>
</g>
<g>
</g>
<g>
</g>
<g>
</g>
<g>
</g>
<g>
</g>
<g>
</g>
<g>
</g>
<g>
</g>
<g>
</g>
<g>
</g>
<g>
</g>
<g>
</g>
<g>
</g>
<g>
</g>
</svg>
